o4l4t120
rrrr rrrr rrrr rrrr

f+f+ga agf+e ddef+ f+.e8e2
f+f+ga agf+e ddef+ e.d8d2
eef+d ef+8g8f+d ef+8g8f+e de<a>f+&
f+f+ga agf+g8e8 ddef+ e.d8d2

eef+d ef+8g8f+d ef+8g8f+e de<a>f+&
f+f+ga agf+g8e8 ddef+ e.d8d2

rrrr rrrr rrrr rrrr

f+f+ga agf+e ddef+ f+.e8e2
f+f+ga agf+e ddef+ e.d8d2
eef+d ef+8g8f+d ef+8g8f+e de<a>f+&
f+f+ga agf+e ddef+ e.d8d2

eef+d ef+8g8f+d ef+8g8f+e de<a>f+&
f+f+ga agf+e ddef+ e.d8d2